# xmcd CD database file
#
# Track frame offsets:
#	150
#	20975
#	44050
#	65262
#	84537
#	99212
#
# Disc length: 1578 seconds
#
# Revision: 1
# Processed by: cddbd v1.5.2PL0 Copyright (c) Steve Scherf et al.
# Submitted via: CDex 1.70beta3
#
DISCID=4a062806
DTITLE=EVE - EVE
DYEAR=1990
DGENRE=JPop
TTITLE0=センチメンGALじゃ〜に〜
TTITLE1=MedleyPart?〜OJINGAL PARTY〜
TTITLE2=恋はパッション
TTITLE3=Tra-la-la
TTITLE4=HAPPY VACATION
TTITLE5=JOSEPH! JOSEPH!
EXTD=YEAR: 1990
EXTT0=
EXTT1=
EXTT2=
EXTT3=
EXTT4=
EXTT5=
PLAYORDER=
